<svg width="19" height="20" viewBox="0 0 19 20" fill="none" xmlns="http://www.w3.org/2000/svg">
<path fill-rule="evenodd" clip-rule="evenodd" d="M11.2265 5.35289C11.6904 5.35289 12.1543 5.35289 12.6182 5.35289H12.814V2.93033C12.5666 2.93033 12.3089 2.86848 12.0512 2.85817C11.577 2.85817 11.0925 2.85817 10.6183 2.85817C9.88316 2.84298 9.16189 3.05937 8.55653 3.47669C8.22397 3.71932 7.94452 4.02736 7.73534 4.38191C7.52615 4.73646 7.39165 5.13003 7.34009 5.53845C7.29214 5.88013 7.2646 6.22437 7.25762 6.56932C7.25762 7.10538 7.25762 7.6002 7.25762 8.1878V8.39397H5V11.0846H7.29886V17.8574H10.0925V11.0949H12.3708C12.4945 10.2083 12.6079 9.32176 12.7316 8.39397H10.0925C10.0925 8.39397 10.0925 7.05383 10.0925 6.47654C10.0925 5.61061 10.5977 5.37351 11.2265 5.35289Z" fill="url(#paint0_linear_158_157)"/>
<defs>
<linearGradient id="paint0_linear_158_157" x1="5" y1="10.4804" x2="12.814" y2="10.4804" gradientUnits="userSpaceOnUse">
<stop stop-color="#01C5FF"/>
<stop offset="1" stop-color="#01E9F8"/>
</linearGradient>
</defs>
</svg>
