<svg width="19" height="20" viewBox="0 0 19 20" fill="none" xmlns="http://www.w3.org/2000/svg">
<g id="Icons">
<g id="Vector">
<path d="M2.24917 7.82405H5.37625V17.8317H2.24917V7.82405ZM3.81894 2.85746C4.29805 2.85746 4.75753 3.04715 5.09631 3.38479C5.43509 3.72243 5.62542 4.18037 5.62542 4.65786C5.62542 4.89429 5.57869 5.1284 5.48791 5.34683C5.39712 5.56526 5.26405 5.76374 5.09631 5.93092C4.92856 6.0981 4.72942 6.23072 4.51024 6.3212C4.29107 6.41167 4.05617 6.45824 3.81894 6.45824C3.58066 6.45988 3.34441 6.41452 3.12379 6.32478C2.90318 6.23503 2.70257 6.10268 2.5335 5.93533C2.36443 5.76799 2.23025 5.56896 2.13869 5.34971C2.04713 5.13046 1.99999 4.89534 2 4.65786C1.99999 4.42038 2.04713 4.18524 2.13869 3.966C2.23025 3.74675 2.36443 3.54772 2.5335 3.38037C2.70257 3.21303 2.90318 3.08067 3.12379 2.99093C3.34441 2.90119 3.58066 2.85583 3.81894 2.85746Z" fill="url(#paint0_linear_158_242)"/>
<path d="M7.31975 7.82492H10.3098V9.20314C10.6066 8.68973 11.0386 8.26686 11.5589 7.98021C12.0793 7.69355 12.6683 7.55399 13.2625 7.57659C16.4269 7.57659 17 9.65014 17 12.3445V17.8326H13.8854V12.9653C13.8854 11.8106 13.8854 10.3206 12.2658 10.3206C10.6462 10.3206 10.397 11.5623 10.397 12.8908V17.8574H7.26992L7.31975 7.82492Z" fill="url(#paint1_linear_158_242)"/>
</g>
</g>
<defs>
<linearGradient id="paint0_linear_158_242" x1="2" y1="10.4804" x2="17" y2="10.4804" gradientUnits="userSpaceOnUse">
<stop stop-color="#01C5FF"/>
<stop offset="1" stop-color="#01E9F8"/>
</linearGradient>
<linearGradient id="paint1_linear_158_242" x1="2" y1="10.4804" x2="17" y2="10.4804" gradientUnits="userSpaceOnUse">
<stop stop-color="#01C5FF"/>
<stop offset="1" stop-color="#01E9F8"/>
</linearGradient>
</defs>
</svg>
