<svg width="88" height="74" viewBox="0 0 88 74" fill="none" xmlns="http://www.w3.org/2000/svg">
<path d="M39 0V4.37222C39 5.47679 38.1046 6.37222 37 6.37222L17.8162 6.37222C17.304 6.37222 16.8113 6.56875 16.4397 6.9213L7.26177 15.6287C6.86372 16.0063 6.6383 16.5309 6.6383 17.0796L6.63829 29.8611C6.63829 30.9657 5.74286 31.8611 4.63829 31.8611H0M49 0L49 4.37222C49 5.47679 49.8954 6.37222 51 6.37222L70.1838 6.37222C70.696 6.37222 71.1887 6.56875 71.5603 6.9213L80.7382 15.6287C81.1363 16.0063 81.3617 16.5309 81.3617 17.0796V29.8611C81.3617 30.9657 82.2571 31.8611 83.3617 31.8611H88M49 74L49 69.6278C49 68.5232 49.8954 67.6278 51 67.6278H70.1838C70.696 67.6278 71.1887 67.4312 71.5603 67.0787L80.7382 58.3713C81.1363 57.9937 81.3617 57.4691 81.3617 56.9204V44.1389C81.3617 43.0343 82.2571 42.1389 83.3617 42.1389H88M39 74V69.6278C39 68.5232 38.1046 67.6278 37 67.6278H17.8162C17.304 67.6278 16.8113 67.4312 16.4397 67.0787L7.26177 58.3713C6.86372 57.9937 6.6383 57.4691 6.6383 56.9204L6.6383 44.1389C6.6383 43.0343 5.74287 42.1389 4.6383 42.1389H2.75719e-06M27 51.3889L35.5515 25.0219C35.8189 24.1973 36.5871 23.6389 37.4539 23.6389H40M51 51.3889L42.9332 25.0531C42.6758 24.2127 41.8998 23.6389 41.0209 23.6389H39M60 51.3891V34.8162M60 26.7224L60 30.962M30 41.1113H42" stroke="white" stroke-width="2"/>
</svg>
