<svg width="91" height="72" viewBox="0 0 91 72" fill="none" xmlns="http://www.w3.org/2000/svg">
<path d="M34.9991 59H20.9991C18.79 59 16.9991 57.2091 16.9991 55V46.625M16.9991 26V38.375M56.9991 13L70.9991 13C73.2082 13 74.9991 14.7909 74.9991 17V25.375M74.9991 46V33.625M21.9991 11.9999L26.5936 17.3602C27.3517 18.2447 28.7025 18.2966 29.5263 17.4728L35.9991 11M54.9991 55.9999L59.5936 61.3602C60.3517 62.2447 61.7025 62.2966 62.5263 61.4728L68.9991 55M8.24142 2.82463L2.40888 11.8246C1.55121 13.1481 1.55121 14.8519 2.40888 16.1754L8.24142 25.1754C8.97878 26.3132 10.2423 27 11.5982 27H46.4C47.7559 27 49.0194 26.3132 49.7568 25.1754L55.5893 16.1754C56.447 14.8519 56.447 13.1481 55.5893 11.8246L49.7568 2.82463C49.0194 1.68682 47.7559 1 46.4 1H11.5982C10.2423 1 8.97878 1.68682 8.24142 2.82463ZM41.2414 46.8246L35.4089 55.8246C34.5512 57.1481 34.5512 58.8519 35.4089 60.1754L41.2414 69.1754C41.9788 70.3132 43.2423 71 44.5982 71H79.4C80.7559 71 82.0194 70.3132 82.7568 69.1754L88.5893 60.1754C89.447 58.8519 89.447 57.1481 88.5893 55.8246L82.7568 46.8246C82.0194 45.6868 80.7559 45 79.4 45H44.5982C43.2423 45 41.9788 45.6868 41.2414 46.8246Z" stroke="white" stroke-width="2"/>
</svg>
