<svg width="90" height="74" viewBox="0 0 90 74" fill="none" xmlns="http://www.w3.org/2000/svg">
<path d="M66 19C66 24.5228 70.4772 29 76 29H90M66 55C66 49.4772 70.4772 45 76 45H90M23 55C23 49.4772 18.5228 45 13 45H0M23 19C23 24.5228 18.5228 29 13 29H0M49.2155 30L42.6349 30.0812C42.1512 30.0872 41.6735 30.1878 41.229 30.3772C40.7845 30.5666 40.382 30.8411 40.0444 31.185C39.7069 31.5289 39.4409 31.9355 39.2618 32.3815C39.0826 32.8274 38.9938 33.3042 39.0003 33.7843C39.0064 34.2642 39.1077 34.7381 39.2983 35.1791C39.489 35.6201 39.7653 36.0195 40.1115 36.3545C40.4576 36.6895 40.8669 36.9535 41.3159 37.1315C41.7649 37.3095 42.2448 37.398 42.7282 37.3919L45.6247 37.3542C46.6013 37.3426 47.5426 37.7165 48.2417 38.3935C48.9407 39.0706 49.3403 39.9953 49.3526 40.9647C49.3588 41.4446 49.2697 41.9209 49.0903 42.3666C48.911 42.8122 48.645 43.2184 48.3075 43.562C47.97 43.9057 47.5676 44.1799 47.1233 44.3692C46.679 44.5584 46.2015 44.6589 45.7181 44.6649L39.1404 44.7489M39 55L28.9357 70.2977C27.826 71.9845 25.9423 73 23.9232 73H9M39 19L28.9357 3.7023C27.826 2.01552 25.9423 1 23.9232 1H9M50 19L60.4511 3.62674C61.5682 1.9836 63.4262 1 65.4131 1H81M50 55L60.4511 70.3733C61.5682 72.0164 63.4262 73 65.4131 73H81M13 19H76V55H13V19Z" stroke="white" stroke-width="2"/>
</svg>
