<svg width="76" height="76" viewBox="0 0 76 76" fill="none" xmlns="http://www.w3.org/2000/svg">
<path d="M44 29H36.25C33.9028 29 32 30.9028 32 33.25C32 35.5972 33.9028 37.5 36.25 37.5H39.75C42.0972 37.5 44 39.4028 44 41.75C44 44.0972 42.0972 46 39.75 46H32M2.00459 48.5415L9.84177 38L2 27.454C2.8269 24.7338 3.97537 22.0678 5.48216 19.5015C6.94976 16.9918 8.71048 14.6601 10.7284 12.5538L23.922 13.9705L29.2693 2.01686C35.0069 0.665652 40.9864 0.661001 46.7261 2.00328L52.0826 13.9705L65.2762 12.5538C69.3289 16.7802 72.3172 21.8856 74 27.4585L66.1628 38L74 48.546C73.1731 51.2662 72.0246 53.9322 70.5178 56.4985C69.0502 59.0082 67.2895 61.3399 65.2716 63.4462L52.078 62.0295L46.7307 73.9831C40.9931 75.3343 35.0136 75.339 29.2739 73.9967L23.9174 62.0295L10.7238 63.4462C6.67106 59.2198 3.68744 54.1144 2.00459 48.5415ZM58 38C58 49.0457 49.0457 58 38 58C26.9543 58 18 49.0457 18 38C18 26.9543 26.9543 18 38 18C49.0457 18 58 26.9543 58 38Z" stroke="white" stroke-width="2"/>
</svg>
