<svg width="19" height="19" viewBox="0 0 19 19" fill="none" xmlns="http://www.w3.org/2000/svg">
<path d="M14.3108 7.70637C14.3108 11.5293 9.49989 15.9998 9.49989 15.9998C9.49989 15.9998 4.68896 11.5293 4.68896 7.70637C4.68896 6.4581 5.19584 5.26095 6.09806 4.37829C7.00028 3.49563 8.22395 2.99976 9.49989 2.99976C10.7758 2.99976 11.9995 3.49563 12.9017 4.37829C13.8039 5.26095 14.3108 6.4581 14.3108 7.70637Z" stroke="url(#paint0_linear_153_281)" stroke-width="1.3" stroke-miterlimit="10"/>
<path d="M9.49919 8.97468C10.3444 8.97468 11.0296 8.30437 11.0296 7.47749C11.0296 6.65062 10.3444 5.9803 9.49919 5.9803C8.65399 5.9803 7.96882 6.65062 7.96882 7.47749C7.96882 8.30437 8.65399 8.97468 9.49919 8.97468Z" stroke="url(#paint1_linear_153_281)" stroke-width="1.3" stroke-miterlimit="10"/>
<defs>
<linearGradient id="paint0_linear_153_281" x1="4.68896" y1="9.60631" x2="14.3108" y2="9.60631" gradientUnits="userSpaceOnUse">
<stop stop-color="#01C5FF"/>
<stop offset="1" stop-color="#01E9F8"/>
</linearGradient>
<linearGradient id="paint1_linear_153_281" x1="4.68896" y1="9.60631" x2="14.3108" y2="9.60631" gradientUnits="userSpaceOnUse">
<stop stop-color="#01C5FF"/>
<stop offset="1" stop-color="#01E9F8"/>
</linearGradient>
</defs>
</svg>
