<svg width="82" height="110" viewBox="0 0 82 110" fill="none" xmlns="http://www.w3.org/2000/svg">
<path d="M11.1158 107.604H2.91719V95.3721H0V109.988H11.1158V107.604Z" fill="white"/>
<path d="M16.7158 95.3721H13.7986V109.988H16.7158V95.3721Z" fill="white"/>
<path d="M30.3552 102.325V102.168C30.3552 102.168 32.7217 101.613 32.7217 99.3229C32.7217 97.0324 31.0674 95.3812 27.1991 95.3812H20.7367V109.999H27.991C31.7751 109.999 33.7457 108.023 33.7457 105.81C33.7457 102.887 30.3552 102.325 30.3552 102.325ZM23.5742 97.8217H27.124C28.7783 97.8217 29.6475 98.611 29.6475 99.5594C29.6475 100.508 28.7783 101.299 27.124 101.379H23.5742V97.8217ZM27.9113 107.618H23.5742V103.751H27.9113C29.7317 103.751 30.5919 104.62 30.5919 105.728C30.5919 106.754 29.8045 107.618 27.9113 107.618Z" fill="white"/>
<path d="M48.4887 97.7558V95.3721H36.6629V109.988H48.4887V107.604H39.5801V103.952H45.5738V101.568H39.5801V97.7558H48.4887Z" fill="white"/>
<path d="M64.0235 100.192C64.0235 97.4259 61.9756 95.3721 58.0299 95.3721H51.4878V109.99H54.405V105.011H58.4258L61.8163 109.99H65.2L61.3316 104.459V104.379C62.1438 104.025 62.8329 103.438 63.312 102.693C63.791 101.948 64.0386 101.077 64.0235 100.192ZM58.0299 102.562H54.3253V97.7421H58.0299C60.0027 97.7421 61.0267 98.8498 61.0267 100.192C61.0267 101.295 60.0027 102.562 58.0299 102.562Z" fill="white"/>
<path d="M72.3018 95.3812L66.3104 109.999H69.4643L70.5679 107.058H77.7425L78.8462 109.999H82L75.929 95.3812H72.3018ZM71.5919 104.518L74.1154 98.479H74.195L76.7163 104.518H71.5919Z" fill="white"/>
<path d="M17.1087 64.6618H47.7547V81.8115H0V0H17.1087V64.6618ZM64.8634 0V17.1499H82V0H64.8634ZM47.7547 34.3275V51.4774H64.8634V81.8396H82V34.3275H47.7547Z" fill="url(#paint0_linear_9_473)"/>
<defs>
<linearGradient id="paint0_linear_9_473" x1="6.10948e-07" y1="40.9198" x2="82" y2="40.9198" gradientUnits="userSpaceOnUse">
<stop stop-color="#01C5FF"/>
<stop offset="1" stop-color="#01E9F8"/>
</linearGradient>
</defs>
</svg>
