<svg width="15" height="11" viewBox="0 0 15 11" fill="none" xmlns="http://www.w3.org/2000/svg">
<g id="Group 287">
<g id="Vector">
<path d="M8.75259 8.05683C8.39898 8.33567 7.95678 8.48762 7.50082 8.487C7.04486 8.48758 6.60268 8.33563 6.24905 8.05683L0 3.12413L0 9.10416C0 9.48753 0.157226 9.8552 0.437092 10.1263C0.716957 10.3974 1.09654 10.5497 1.49233 10.5497H13.5077C13.9035 10.5497 14.283 10.3974 14.5629 10.1263C14.8428 9.8552 15 9.48753 15 9.10416V3.12676L8.75259 8.05683Z" fill="url(#paint0_linear_158_350)"/>
<path d="M8.13377 6.6724L14.9608 1.28211C14.8843 0.964392 14.699 0.681096 14.4352 0.478285C14.1714 0.275473 13.8445 0.165073 13.5077 0.165039H1.49232C1.15544 0.165049 0.82846 0.275429 0.56454 0.478235C0.300621 0.681041 0.115277 0.964349 0.0386394 1.28211L6.86677 6.6724C7.04597 6.81304 7.26962 6.88979 7.50027 6.88979C7.73092 6.88979 7.95456 6.81304 8.13377 6.6724Z" fill="url(#paint1_linear_158_350)"/>
</g>
</g>
<defs>
<linearGradient id="paint0_linear_158_350" x1="1.11759e-07" y1="5.35735" x2="15" y2="5.35735" gradientUnits="userSpaceOnUse">
<stop stop-color="#01C5FF"/>
<stop offset="1" stop-color="#01E9F8"/>
</linearGradient>
<linearGradient id="paint1_linear_158_350" x1="1.11759e-07" y1="5.35735" x2="15" y2="5.35735" gradientUnits="userSpaceOnUse">
<stop stop-color="#01C5FF"/>
<stop offset="1" stop-color="#01E9F8"/>
</linearGradient>
</defs>
</svg>
