<svg width="168" height="157" viewBox="0 0 168 157" fill="none" xmlns="http://www.w3.org/2000/svg">
<path d="M143.393 34.5146L136.951 28.1332C136.478 27.6635 135.916 27.291 135.297 27.0368C134.678 26.7826 134.015 26.6517 133.345 26.6517C132.675 26.6517 132.012 26.7826 131.394 27.0368C130.775 27.291 130.213 27.6635 129.74 28.1332C129.266 28.6019 128.89 29.1586 128.633 29.7715C128.376 30.3843 128.244 31.0413 128.244 31.7048C128.244 32.3683 128.376 33.0253 128.633 33.6382C128.89 34.251 129.266 34.8076 129.74 35.2762L132.588 38.0977C133.543 39.0455 134.08 40.3302 134.08 41.6694C134.08 43.0086 133.543 44.293 132.588 45.2408C132.115 45.7106 131.552 46.0834 130.933 46.3377C130.314 46.592 129.65 46.7227 128.98 46.7227C128.31 46.7227 127.646 46.592 127.027 46.3377C126.408 46.0834 125.846 45.7106 125.372 45.2408L118.93 38.8596M47.8126 117.076L41.3706 110.695C40.413 109.749 39.1155 109.217 37.7627 109.217C36.41 109.217 35.1125 109.749 34.1549 110.695C33.1997 111.643 32.6632 112.927 32.6632 114.267C32.6632 115.606 33.1997 116.89 34.1549 117.838L37.0032 120.66C37.9584 121.607 38.4949 122.892 38.4949 124.231C38.4949 125.57 37.9584 126.855 37.0032 127.803C36.53 128.272 35.968 128.645 35.3494 128.899C34.7307 129.153 34.0675 129.284 33.3977 129.284C32.7279 129.284 32.0646 129.153 31.446 128.899C30.8273 128.645 30.2653 128.272 29.7922 127.803L23.3455 121.421M133.348 131.367L139.79 124.986C140.745 124.037 141.282 122.752 141.282 121.412C141.282 120.072 140.745 118.787 139.79 117.838C138.833 116.892 137.536 116.36 136.184 116.36C134.832 116.36 133.535 116.892 132.579 117.838L129.73 120.66C128.773 121.606 127.477 122.137 126.125 122.137C124.773 122.137 123.476 121.606 122.519 120.66C122.045 120.191 121.669 119.634 121.412 119.021C121.156 118.409 121.024 117.752 121.024 117.088C121.024 116.425 121.156 115.768 121.412 115.155C121.669 114.542 122.045 113.985 122.519 113.517L128.961 107.135M37.777 48.8053L44.2189 42.4241C44.6932 41.9551 45.0694 41.3979 45.3261 40.7847C45.5828 40.1714 45.7149 39.5141 45.7149 38.8502C45.7149 38.1863 45.5828 37.5289 45.3261 36.9157C45.0694 36.3024 44.6932 35.7453 44.2189 35.2762C43.2621 34.3301 41.9654 33.7987 40.6134 33.7987C39.2614 33.7987 37.9647 34.3301 37.0079 35.2762L34.1596 38.0977C33.2028 39.0439 31.9061 39.5755 30.5541 39.5755C29.2021 39.5755 27.9054 39.0439 26.9486 38.0977C26.4745 37.6291 26.0984 37.0725 25.8417 36.4597C25.5851 35.8468 25.453 35.1898 25.453 34.5263C25.453 33.8628 25.5851 33.2058 25.8417 32.593C26.0984 31.9801 26.4745 31.4234 26.9486 30.9547L33.3906 24.5686M92.1989 67.1357L81.4892 67.2675C80.7021 67.2773 79.9246 67.4406 79.2012 67.7483C78.4778 68.0559 77.8228 68.5017 77.2734 69.0603C76.7241 69.6189 76.2912 70.2792 75.9997 71.0035C75.7081 71.7279 75.5636 72.5022 75.5742 73.282C75.5841 74.0613 75.7489 74.8311 76.0592 75.5474C76.3695 76.2636 76.8192 76.9123 77.3825 77.4564C77.9459 78.0005 78.612 78.4292 79.3427 78.7183C80.0734 79.0074 80.8544 79.1512 81.6412 79.1413L86.3551 79.08C87.9445 79.0612 89.4764 79.6685 90.614 80.7681C91.7517 81.8677 92.402 83.3697 92.4221 84.9441C92.4321 85.7234 92.287 86.4971 91.9952 87.2209C91.7034 87.9448 91.2705 88.6045 90.7212 89.1626C90.1719 89.7206 89.517 90.1661 88.794 90.4734C88.0709 90.7808 87.2938 90.944 86.5071 90.9538L75.8021 91.0902M147.024 105.348L162.809 89.3127C165.496 86.5839 167 82.9228 167 79.1107C167 75.2987 165.496 71.6374 162.809 68.9085L145.923 51.7586M21.3517 52.4923L5.18741 68.9085C2.50251 71.6385 1 75.2994 1 79.1107C1 82.9221 2.50251 86.5827 5.18741 89.3127L20.3215 104.685M51.2116 50.1503L66.2982 63.4584M116.789 50.1503L101.698 63.4584M115.308 106.167L101.698 94.7676M52.1925 107.135L66.2982 94.7676M151.791 36.6871C151.791 47.9741 142.554 57.1241 131.159 57.1241C119.765 57.1241 110.528 47.9741 110.528 36.6871C110.528 25.4 119.765 16.25 131.159 16.25C142.554 16.25 151.791 25.4 151.791 36.6871ZM108.244 79.113C108.244 92.3765 97.3901 103.129 84.0005 103.129C70.6109 103.129 59.7565 92.3765 59.7565 79.113C59.7565 65.8495 70.6109 55.0973 84.0005 55.0973C97.3901 55.0973 108.244 65.8495 108.244 79.113ZM56.2056 119.249C56.2056 130.536 46.9687 139.686 35.5743 139.686C24.1799 139.686 14.9429 130.536 14.9429 119.249C14.9429 107.962 24.1799 98.8118 35.5743 98.8118C46.9687 98.8118 56.2056 107.962 56.2056 119.249ZM151.791 119.249C151.791 130.536 142.554 139.686 131.159 139.686C119.765 139.686 110.528 130.536 110.528 119.249C110.528 107.962 119.765 98.8118 131.159 98.8118C142.554 98.8118 151.791 107.962 151.791 119.249ZM56.2056 36.6871C56.2056 47.9741 46.9687 57.1241 35.5743 57.1241C24.1799 57.1241 14.9429 47.9741 14.9429 36.6871C14.9429 25.4 24.1799 16.25 35.5743 16.25C46.9687 16.25 56.2056 25.4 56.2056 36.6871Z" stroke="url(#paint0_linear_199_425)" stroke-width="2" stroke-miterlimit="10"/>
<path d="M114.859 25.8269L95.112 6.38821C91.8281 3.15941 87.4246 1.35254 82.8399 1.35254C78.2553 1.35254 73.852 3.15941 70.5681 6.38821L52.0768 24.5881" stroke="url(#paint1_linear_199_425)" stroke-width="2" stroke-miterlimit="10"/>
<path d="M52.0771 131.173L71.824 150.612C75.1079 153.841 79.5115 155.647 84.0961 155.647C88.6808 155.647 93.084 153.841 96.3679 150.612L114.859 132.412" stroke="url(#paint2_linear_199_425)" stroke-width="2" stroke-miterlimit="10"/>
<defs>
<linearGradient id="paint0_linear_199_425" x1="1" y1="78.9797" x2="167" y2="78.9797" gradientUnits="userSpaceOnUse">
<stop stop-color="#01C5FF"/>
<stop offset="1" stop-color="#01E9F8"/>
</linearGradient>
<linearGradient id="paint1_linear_199_425" x1="82.9533" y1="1.35254" x2="82.9533" y2="25.8269" gradientUnits="userSpaceOnUse">
<stop stop-color="#01C5FF"/>
<stop offset="1" stop-color="#01E9F8"/>
</linearGradient>
<linearGradient id="paint2_linear_199_425" x1="83.9828" y1="155.647" x2="83.9828" y2="131.173" gradientUnits="userSpaceOnUse">
<stop stop-color="#01C5FF"/>
<stop offset="1" stop-color="#01E9F8"/>
</linearGradient>
</defs>
</svg>
