<svg width="169" height="147" viewBox="0 0 169 147" fill="none" xmlns="http://www.w3.org/2000/svg">
<path d="M123.491 109.953H138.979M138.979 109.953C138.979 114.626 142.79 118.415 147.49 118.415C152.19 118.415 156.001 114.626 156.001 109.953C156.001 105.28 152.19 101.492 147.49 101.492C142.79 101.492 138.979 105.28 138.979 109.953ZM39.0861 72.1359H20.9184C15.875 72.1371 11.0386 74.1297 7.47284 77.6756C3.90704 81.2215 1.90381 86.0303 1.90381 91.0445C1.90381 96.0586 3.90704 100.868 7.47284 104.414C11.0386 107.959 15.875 109.952 20.9184 109.953H39.0861M57.1359 34.3227H30.925M123.491 72.1359H148.981C151.479 72.1365 153.952 71.6479 156.259 70.6981C158.567 69.7483 160.663 68.3559 162.43 66.6004C164.196 64.8449 165.597 62.7606 166.552 60.4668C167.508 58.1729 168 55.7144 168 53.2315C168 50.7484 167.508 48.2895 166.552 45.9954C165.597 43.7013 164.196 41.6168 162.43 39.861C160.664 38.1052 158.567 36.7124 156.26 35.7621C153.952 34.8119 151.479 34.3228 148.981 34.3228H123.318M67.8123 53.8723L67.7871 25.6811M67.7871 25.6811L85.7146 16.2267L112.633 25.036M67.7871 25.6811L94.7058 34.4945L94.7395 117.95L112.663 108.491L112.633 25.036M112.633 25.036L94.71 34.4945M49.83 63.3308L67.7576 53.8723L94.6763 62.6816M49.83 63.3308L49.8595 118.595L76.7824 127.404M49.83 63.3308L76.753 72.1401M94.6763 62.6816L94.7058 117.95L76.7824 127.404M94.6763 62.6816L76.753 72.1401M76.7824 127.404L76.753 72.1401M49.8507 145.934H112.661M49.8508 1.06616H112.661M22.4141 26.0329C27.1145 26.0329 30.925 29.8213 30.925 34.4945C30.925 39.1677 27.1145 42.9561 22.4141 42.9561C17.7137 42.9561 13.9033 39.1677 13.9033 34.4945C13.9033 29.8213 17.7137 26.0329 22.4141 26.0329Z" stroke="url(#paint0_linear_158_77)" stroke-width="2" stroke-miterlimit="10"/>
<defs>
<linearGradient id="paint0_linear_158_77" x1="1.90381" y1="74.6874" x2="168" y2="74.6874" gradientUnits="userSpaceOnUse">
<stop stop-color="#01C5FF"/>
<stop offset="1" stop-color="#01E9F8"/>
</linearGradient>
</defs>
</svg>
