<svg width="265" height="265" viewBox="0 0 265 265" fill="none" xmlns="http://www.w3.org/2000/svg">
<g filter="url(#filter0_f_38_427)">
<circle cx="132.5" cy="132.5" r="82.5" fill="#38B7FF" fill-opacity="0.1"/>
</g>
<path d="M191.393 88.5146L184.951 82.1332C184.478 81.6635 183.916 81.291 183.297 81.0368C182.678 80.7826 182.015 80.6517 181.345 80.6517C180.675 80.6517 180.012 80.7826 179.394 81.0368C178.775 81.291 178.213 81.6635 177.74 82.1332C177.266 82.6019 176.89 83.1586 176.633 83.7715C176.376 84.3843 176.244 85.0413 176.244 85.7048C176.244 86.3683 176.376 87.0253 176.633 87.6382C176.89 88.251 177.266 88.8076 177.74 89.2762L180.588 92.0977C181.543 93.0455 182.08 94.3302 182.08 95.6694C182.08 97.0086 181.543 98.293 180.588 99.2408C180.115 99.7106 179.552 100.083 178.933 100.338C178.314 100.592 177.65 100.723 176.98 100.723C176.31 100.723 175.646 100.592 175.027 100.338C174.408 100.083 173.846 99.7106 173.372 99.2408L166.93 92.8596M95.8126 171.076L89.3706 164.695C88.413 163.749 87.1155 163.217 85.7627 163.217C84.41 163.217 83.1125 163.749 82.1549 164.695C81.1997 165.643 80.6632 166.927 80.6632 168.267C80.6632 169.606 81.1997 170.89 82.1549 171.838L85.0032 174.66C85.9584 175.607 86.4949 176.892 86.4949 178.231C86.4949 179.57 85.9584 180.855 85.0032 181.803C84.53 182.272 83.968 182.645 83.3494 182.899C82.7307 183.153 82.0675 183.284 81.3977 183.284C80.7279 183.284 80.0646 183.153 79.446 182.899C78.8273 182.645 78.2653 182.272 77.7922 181.803L71.3455 175.421M181.348 185.367L187.79 178.986C188.745 178.037 189.282 176.752 189.282 175.412C189.282 174.072 188.745 172.787 187.79 171.838C186.833 170.892 185.536 170.36 184.184 170.36C182.832 170.36 181.535 170.892 180.579 171.838L177.73 174.66C176.773 175.606 175.477 176.137 174.125 176.137C172.773 176.137 171.476 175.606 170.519 174.66C170.045 174.191 169.669 173.634 169.412 173.021C169.156 172.409 169.024 171.752 169.024 171.088C169.024 170.425 169.156 169.768 169.412 169.155C169.669 168.542 170.045 167.985 170.519 167.517L176.961 161.135M85.777 102.805L92.2189 96.4241C92.6932 95.9551 93.0694 95.3979 93.3261 94.7847C93.5828 94.1714 93.7149 93.5141 93.7149 92.8502C93.7149 92.1863 93.5828 91.5289 93.3261 90.9157C93.0694 90.3024 92.6932 89.7453 92.2189 89.2762C91.2621 88.3301 89.9654 87.7987 88.6134 87.7987C87.2614 87.7987 85.9647 88.3301 85.0079 89.2762L82.1596 92.0977C81.2028 93.0439 79.9061 93.5755 78.5541 93.5755C77.2021 93.5755 75.9054 93.0439 74.9486 92.0977C74.4745 91.6291 74.0984 91.0725 73.8417 90.4597C73.5851 89.8468 73.453 89.1898 73.453 88.5263C73.453 87.8628 73.5851 87.2058 73.8417 86.593C74.0984 85.9801 74.4745 85.4234 74.9486 84.9547L81.3906 78.5686M140.199 121.136L129.489 121.267C128.702 121.277 127.925 121.441 127.201 121.748C126.478 122.056 125.823 122.502 125.273 123.06C124.724 123.619 124.291 124.279 124 125.004C123.708 125.728 123.564 126.502 123.574 127.282C123.584 128.061 123.749 128.831 124.059 129.547C124.369 130.264 124.819 130.912 125.383 131.456C125.946 132 126.612 132.429 127.343 132.718C128.073 133.007 128.854 133.151 129.641 133.141L134.355 133.08C135.944 133.061 137.476 133.668 138.614 134.768C139.752 135.868 140.402 137.37 140.422 138.944C140.432 139.723 140.287 140.497 139.995 141.221C139.703 141.945 139.27 142.604 138.721 143.163C138.172 143.721 137.517 144.166 136.794 144.473C136.071 144.781 135.294 144.944 134.507 144.954L123.802 145.09M195.024 159.348L210.809 143.313C213.496 140.584 215 136.923 215 133.111C215 129.299 213.496 125.637 210.809 122.909L193.923 105.759M69.3517 106.492L53.1874 122.909C50.5025 125.639 49 129.299 49 133.111C49 136.922 50.5025 140.583 53.1874 143.313L68.3215 158.685M99.2116 104.15L114.298 117.458M164.789 104.15L149.698 117.458M163.308 160.167L149.698 148.768M100.192 161.135L114.298 148.768M199.791 90.6871C199.791 101.974 190.554 111.124 179.159 111.124C167.765 111.124 158.528 101.974 158.528 90.6871C158.528 79.4 167.765 70.25 179.159 70.25C190.554 70.25 199.791 79.4 199.791 90.6871ZM156.244 133.113C156.244 146.376 145.39 157.129 132 157.129C118.611 157.129 107.757 146.376 107.757 133.113C107.757 119.85 118.611 109.097 132 109.097C145.39 109.097 156.244 119.85 156.244 133.113ZM104.206 173.249C104.206 184.536 94.9687 193.686 83.5743 193.686C72.1799 193.686 62.9429 184.536 62.9429 173.249C62.9429 161.962 72.1799 152.812 83.5743 152.812C94.9687 152.812 104.206 161.962 104.206 173.249ZM199.791 173.249C199.791 184.536 190.554 193.686 179.159 193.686C167.765 193.686 158.528 184.536 158.528 173.249C158.528 161.962 167.765 152.812 179.159 152.812C190.554 152.812 199.791 161.962 199.791 173.249ZM104.206 90.6871C104.206 101.974 94.9687 111.124 83.5743 111.124C72.1799 111.124 62.9429 101.974 62.9429 90.6871C62.9429 79.4 72.1799 70.25 83.5743 70.25C94.9687 70.25 104.206 79.4 104.206 90.6871Z" stroke="url(#paint0_linear_38_427)" stroke-width="2" stroke-miterlimit="10"/>
<path d="M162.859 79.8269L143.112 60.3882C139.828 57.1594 135.425 55.3525 130.84 55.3525C126.255 55.3525 121.852 57.1594 118.568 60.3882L100.077 78.5881" stroke="url(#paint1_linear_38_427)" stroke-width="2" stroke-miterlimit="10"/>
<path d="M100.077 185.173L119.824 204.612C123.108 207.841 127.511 209.647 132.096 209.647C136.681 209.647 141.084 207.841 144.368 204.612L162.859 186.412" stroke="url(#paint2_linear_38_427)" stroke-width="2" stroke-miterlimit="10"/>
<defs>
<filter id="filter0_f_38_427" x="0" y="0" width="265" height="265" filterUnits="userSpaceOnUse" color-interpolation-filters="sRGB">
<feFlood flood-opacity="0" result="BackgroundImageFix"/>
<feBlend mode="normal" in="SourceGraphic" in2="BackgroundImageFix" result="shape"/>
<feGaussianBlur stdDeviation="25" result="effect1_foregroundBlur_38_427"/>
</filter>
<linearGradient id="paint0_linear_38_427" x1="49" y1="132.98" x2="215" y2="132.98" gradientUnits="userSpaceOnUse">
<stop stop-color="#01C5FF"/>
<stop offset="1" stop-color="#01E9F8"/>
</linearGradient>
<linearGradient id="paint1_linear_38_427" x1="130.953" y1="55.3525" x2="130.953" y2="79.8269" gradientUnits="userSpaceOnUse">
<stop stop-color="#01C5FF"/>
<stop offset="1" stop-color="#01E9F8"/>
</linearGradient>
<linearGradient id="paint2_linear_38_427" x1="131.983" y1="209.647" x2="131.983" y2="185.173" gradientUnits="userSpaceOnUse">
<stop stop-color="#01C5FF"/>
<stop offset="1" stop-color="#01E9F8"/>
</linearGradient>
</defs>
</svg>
