<svg width="179" height="158" viewBox="0 0 179 158" fill="none" xmlns="http://www.w3.org/2000/svg">
<path d="M36.8435 105.61C49.0654 102.217 72.5289 98.6663 89.6819 108.773C109.91 120.696 116.564 125.03 116.564 125.03H139.183C140.862 125.031 142.473 125.702 143.66 126.895C144.847 128.088 145.514 129.706 145.514 131.393C145.517 132.916 144.975 134.39 143.988 135.546C143 136.702 141.632 137.464 140.133 137.692L114.486 141.602C111.15 142.112 107.748 141.98 104.461 141.215C96.7613 139.426 86.7567 136.751 80.0163 136.296M36.8435 143.439L46.169 140.406C52.1474 138.464 58.6157 138.702 64.4368 141.078L96.6197 154.208C101.421 156.166 106.686 156.679 111.773 155.685L144.476 149.295C149.798 148.253 154.679 145.61 158.47 141.717L176.218 123.488C176.822 122.867 177.288 122.123 177.583 121.306C177.879 120.489 177.998 119.619 177.932 118.752C177.866 117.886 177.617 117.043 177.201 116.281C176.785 115.519 176.212 114.855 175.521 114.333C174.538 113.591 173.355 113.165 172.127 113.112C170.899 113.058 169.684 113.38 168.641 114.034L145.491 130.846M175.089 114.538C175.77 113.968 176.195 113.452 176.568 112.644C176.941 111.836 177.131 110.955 177.125 110.064C177.118 109.174 176.915 108.296 176.53 107.494C176.145 106.692 175.588 105.985 174.898 105.425C173.952 104.657 172.795 104.196 171.581 104.104C170.368 104.012 169.155 104.293 168.105 104.91L133.822 125.03M117.383 124.944L143.928 108.409C145.821 107.218 148 106.565 150.233 106.519C152.466 106.474 154.67 107.037 156.61 108.15L159.629 109.884M160.969 15.5889V82.5422H17.981V65.9024L41.1311 52.1977M107.899 30.8311L118.042 34.9607L154.826 12.3226M54.0173 50.8982L63.6982 54.6638L95.3283 32.2497M105.478 62.0855L125.546 66.8287L160.969 34.8557M60.6299 82.5422L92.4714 63.63M7.6474 150.886H1V101.538H15.4458H29.8917V150.886H17.981M54.9649 48.7074C54.9649 52.872 51.604 56.248 47.458 56.248C43.3121 56.248 39.9512 52.872 39.9512 48.7074C39.9512 44.5428 43.3121 41.1668 47.458 41.1668C51.604 41.1668 54.9649 44.5428 54.9649 48.7074ZM108.756 28.4047C108.756 32.5693 105.395 35.9453 101.249 35.9453C97.1028 35.9453 93.7419 32.5693 93.7419 28.4047C93.7419 24.2401 97.1028 20.8641 101.249 20.8641C105.395 20.8641 108.756 24.2401 108.756 28.4047ZM106.194 60.1956C106.194 64.3602 102.833 67.7363 98.6869 67.7363C94.5409 67.7363 91.18 64.3602 91.18 60.1956C91.18 56.0311 94.5409 52.655 98.6869 52.655C102.833 52.655 106.194 56.0311 106.194 60.1956ZM168.476 8.54061C168.476 12.7052 165.115 16.0812 160.969 16.0812C156.823 16.0812 153.462 12.7052 153.462 8.54061C153.462 4.37605 156.823 1 160.969 1C165.115 1 168.476 4.37605 168.476 8.54061Z" stroke="url(#paint0_linear_181_304)" stroke-width="2" stroke-miterlimit="10"/>
<defs>
<linearGradient id="paint0_linear_181_304" x1="1" y1="79.8614" x2="177.95" y2="79.8614" gradientUnits="userSpaceOnUse">
<stop stop-color="#01C5FF"/>
<stop offset="1" stop-color="#01E9F8"/>
</linearGradient>
</defs>
</svg>
