<svg width="265" height="265" viewBox="0 0 265 265" fill="none" xmlns="http://www.w3.org/2000/svg">
<g opacity="0.5">
<g filter="url(#filter0_f_38_423)">
<circle cx="132.5" cy="132.5" r="82.5" fill="#38B7FF" fill-opacity="0.1"/>
</g>
<path d="M170.491 167.953H185.979M185.979 167.953C185.979 172.626 189.79 176.415 194.49 176.415C199.19 176.415 203.001 172.626 203.001 167.953C203.001 163.28 199.19 159.492 194.49 159.492C189.79 159.492 185.979 163.28 185.979 167.953ZM86.0861 130.136H67.9184C62.875 130.137 58.0386 132.13 54.4728 135.676C50.907 139.222 48.9038 144.03 48.9038 149.044C48.9038 154.059 50.907 158.868 54.4728 162.414C58.0386 165.959 62.875 167.952 67.9184 167.953H86.0861M104.136 92.3227H77.925M170.491 130.136H195.981C198.479 130.136 200.952 129.648 203.259 128.698C205.567 127.748 207.663 126.356 209.43 124.6C211.196 122.845 212.597 120.761 213.552 118.467C214.508 116.173 215 113.714 215 111.232C215 108.748 214.508 106.29 213.552 103.995C212.597 101.701 211.196 99.6168 209.43 97.861C207.664 96.1052 205.567 94.7124 203.26 93.7621C200.952 92.8119 198.479 92.3228 195.981 92.3228H170.318M114.812 111.872L114.787 83.6811M114.787 83.6811L132.715 74.2267L159.633 83.036M114.787 83.6811L141.706 92.4945L141.74 175.95L159.663 166.491L159.633 83.036M159.633 83.036L141.71 92.4945M96.83 121.331L114.758 111.872L141.676 120.682M96.83 121.331L96.8595 176.595L123.782 185.404M96.83 121.331L123.753 130.14M141.676 120.682L141.706 175.95L123.782 185.404M141.676 120.682L123.753 130.14M123.782 185.404L123.753 130.14M96.8507 203.934H159.661M96.8508 59.0662H159.661M69.4141 84.0329C74.1145 84.0329 77.925 87.8213 77.925 92.4945C77.925 97.1677 74.1145 100.956 69.4141 100.956C64.7137 100.956 60.9033 97.1677 60.9033 92.4945C60.9033 87.8213 64.7137 84.0329 69.4141 84.0329Z" stroke="url(#paint0_linear_38_423)" stroke-width="2" stroke-miterlimit="10"/>
</g>
<defs>
<filter id="filter0_f_38_423" x="0" y="0" width="265" height="265" filterUnits="userSpaceOnUse" color-interpolation-filters="sRGB">
<feFlood flood-opacity="0" result="BackgroundImageFix"/>
<feBlend mode="normal" in="SourceGraphic" in2="BackgroundImageFix" result="shape"/>
<feGaussianBlur stdDeviation="25" result="effect1_foregroundBlur_38_423"/>
</filter>
<linearGradient id="paint0_linear_38_423" x1="48.9038" y1="132.687" x2="215" y2="132.687" gradientUnits="userSpaceOnUse">
<stop stop-color="#01C5FF"/>
<stop offset="1" stop-color="#01E9F8"/>
</linearGradient>
</defs>
</svg>
