<svg width="265" height="265" viewBox="0 0 265 265" fill="none" xmlns="http://www.w3.org/2000/svg">
<g opacity="0.5">
<g filter="url(#filter0_f_38_420)">
<circle cx="132.5" cy="132.5" r="82.5" fill="#38B7FF" fill-opacity="0.1"/>
</g>
<path d="M79.8435 158.61C92.0654 155.217 115.529 151.666 132.682 161.773C152.91 173.696 159.564 178.03 159.564 178.03H182.183C183.862 178.031 185.473 178.702 186.66 179.895C187.847 181.088 188.514 182.706 188.514 184.393C188.517 185.916 187.975 187.39 186.988 188.546C186 189.702 184.632 190.464 183.133 190.692L157.486 194.602C154.15 195.112 150.748 194.98 147.461 194.215C139.761 192.426 129.757 189.751 123.016 189.296M79.8435 196.439L89.169 193.406C95.1474 191.464 101.616 191.702 107.437 194.078L139.62 207.208C144.421 209.166 149.686 209.679 154.773 208.685L187.476 202.295C192.798 201.253 197.679 198.61 201.47 194.717L219.218 176.488C219.822 175.867 220.288 175.123 220.583 174.306C220.879 173.489 220.998 172.619 220.932 171.752C220.866 170.886 220.617 170.043 220.201 169.281C219.785 168.519 219.212 167.855 218.521 167.333C217.538 166.591 216.355 166.165 215.127 166.112C213.899 166.058 212.684 166.38 211.641 167.034L188.491 183.846M218.089 167.538C218.77 166.968 219.195 166.452 219.568 165.644C219.941 164.836 220.131 163.955 220.125 163.064C220.118 162.174 219.915 161.296 219.53 160.494C219.145 159.692 218.588 158.985 217.898 158.425C216.952 157.657 215.795 157.196 214.581 157.104C213.368 157.012 212.155 157.293 211.105 157.91L176.822 178.03M160.383 177.944L186.928 161.409C188.821 160.218 191 159.565 193.233 159.519C195.466 159.474 197.67 160.037 199.61 161.15L202.629 162.884M203.969 68.5889V135.542H60.981V118.902L84.1311 105.198M150.899 83.8311L161.042 87.9607L197.826 65.3226M97.0173 103.898L106.698 107.664L138.328 85.2497M148.478 115.085L168.546 119.829L203.969 87.8557M103.63 135.542L135.471 116.63M50.6474 203.886H44V154.538H58.4458H72.8917V203.886H60.981M97.9649 101.707C97.9649 105.872 94.604 109.248 90.458 109.248C86.3121 109.248 82.9512 105.872 82.9512 101.707C82.9512 97.5428 86.3121 94.1668 90.458 94.1668C94.604 94.1668 97.9649 97.5428 97.9649 101.707ZM151.756 81.4047C151.756 85.5693 148.395 88.9453 144.249 88.9453C140.103 88.9453 136.742 85.5693 136.742 81.4047C136.742 77.2401 140.103 73.8641 144.249 73.8641C148.395 73.8641 151.756 77.2401 151.756 81.4047ZM149.194 113.196C149.194 117.36 145.833 120.736 141.687 120.736C137.541 120.736 134.18 117.36 134.18 113.196C134.18 109.031 137.541 105.655 141.687 105.655C145.833 105.655 149.194 109.031 149.194 113.196ZM211.476 61.5406C211.476 65.7052 208.115 69.0812 203.969 69.0812C199.823 69.0812 196.462 65.7052 196.462 61.5406C196.462 57.376 199.823 54 203.969 54C208.115 54 211.476 57.376 211.476 61.5406Z" stroke="url(#paint0_linear_38_420)" stroke-width="2" stroke-miterlimit="10"/>
</g>
<defs>
<filter id="filter0_f_38_420" x="0" y="0" width="265" height="265" filterUnits="userSpaceOnUse" color-interpolation-filters="sRGB">
<feFlood flood-opacity="0" result="BackgroundImageFix"/>
<feBlend mode="normal" in="SourceGraphic" in2="BackgroundImageFix" result="shape"/>
<feGaussianBlur stdDeviation="25" result="effect1_foregroundBlur_38_420"/>
</filter>
<linearGradient id="paint0_linear_38_420" x1="44" y1="132.861" x2="220.95" y2="132.861" gradientUnits="userSpaceOnUse">
<stop stop-color="#01C5FF"/>
<stop offset="1" stop-color="#01E9F8"/>
</linearGradient>
</defs>
</svg>
