<svg width="15" height="15" viewBox="0 0 15 15" fill="none" xmlns="http://www.w3.org/2000/svg">
<mask id="path-1-outside-1_153_137" maskUnits="userSpaceOnUse" x="-0.0625" y="-0.0627441" width="15" height="15" fill="black">
<rect fill="white" x="-0.0625" y="-0.0627441" width="15" height="15"/>
<path d="M11.2061 8.63501C11.3965 8.63501 11.582 8.67163 11.7627 8.74487C11.9434 8.81812 12.1021 8.9231 12.2388 9.05981C12.3413 9.16235 12.4561 9.26978 12.583 9.38208C12.71 9.49438 12.8442 9.61401 12.9858 9.74097C13.1274 9.86792 13.2593 9.99976 13.3813 10.1365C13.5034 10.2732 13.6182 10.4124 13.7256 10.554C13.833 10.6956 13.9136 10.8469 13.9673 11.0081C14.021 11.1692 14.0527 11.3303 14.0625 11.4915C14.0625 11.6819 14.0259 11.8674 13.9526 12.0481C13.8794 12.2288 13.7744 12.3875 13.6377 12.5242C13.3887 12.7732 13.1641 12.9929 12.9639 13.1833C12.7637 13.3738 12.5562 13.5349 12.3413 13.6667C12.1265 13.7986 11.8848 13.8962 11.6162 13.9597C11.3477 14.0232 11.0327 14.0574 10.6714 14.0623C10.1392 14.0623 9.59229 13.9792 9.03076 13.8132C8.46924 13.6472 7.91016 13.4177 7.35352 13.1248C6.79688 12.8318 6.25244 12.4827 5.72021 12.0774C5.18799 11.6721 4.68506 11.2302 4.21143 10.7517C3.73779 10.2732 3.29834 9.76782 2.89307 9.2356C2.48779 8.70337 2.14355 8.16138 1.86035 7.60962C1.57715 7.05786 1.35254 6.50366 1.18652 5.94702C1.02051 5.39038 0.9375 4.85327 0.9375 4.33569C0.9375 3.9646 0.969238 3.64722 1.03271 3.38354C1.09619 3.11987 1.19385 2.88062 1.32568 2.66577C1.45752 2.45093 1.61865 2.24341 1.80908 2.04321C1.99951 1.84302 2.22168 1.61597 2.47559 1.36206C2.6123 1.22534 2.771 1.12036 2.95166 1.04712C3.13232 0.973877 3.31787 0.937256 3.5083 0.937256C3.75244 0.937256 3.98682 1.00317 4.21143 1.13501C4.43604 1.26685 4.65332 1.42798 4.86328 1.61841C5.07324 1.80884 5.26611 2.00903 5.44189 2.21899C5.61768 2.42896 5.78369 2.60962 5.93994 2.76099C6.07666 2.89771 6.18164 3.0564 6.25488 3.23706C6.32812 3.41772 6.36475 3.60327 6.36475 3.7937C6.36475 3.98413 6.33301 4.15503 6.26953 4.3064C6.20605 4.45776 6.12793 4.59204 6.03516 4.70923C5.94238 4.82642 5.83984 4.93628 5.72754 5.03882C5.61523 5.14136 5.5127 5.23901 5.41992 5.33179C5.32715 5.42456 5.24658 5.51489 5.17822 5.60278C5.10986 5.69067 5.07812 5.78833 5.08301 5.89575C5.08301 5.95435 5.12695 6.04712 5.21484 6.17407C5.30273 6.30103 5.4248 6.45239 5.58105 6.62817C5.7373 6.80396 5.91064 6.99194 6.10107 7.19214C6.2915 7.39233 6.49658 7.59985 6.71631 7.8147C6.93604 8.02954 7.14844 8.23706 7.35352 8.43726C7.55859 8.63745 7.75635 8.82788 7.94678 9.00854C8.13721 9.18921 8.29834 9.34302 8.43018 9.46997C8.56201 9.59692 8.66455 9.69458 8.73779 9.76294C8.84033 9.86548 8.9624 9.91675 9.104 9.91675C9.20654 9.91675 9.30176 9.88501 9.38965 9.82153C9.47754 9.75806 9.56787 9.67993 9.66064 9.58716C9.75342 9.49438 9.84863 9.39185 9.94629 9.27954C10.0439 9.16724 10.1562 9.0647 10.2832 8.97192C10.4102 8.87915 10.5444 8.79858 10.686 8.73022C10.8276 8.66187 11.001 8.63013 11.2061 8.63501ZM10.6714 13.1248C10.9692 13.1248 11.2183 13.0979 11.4185 13.0442C11.6187 12.9905 11.8018 12.9075 11.9678 12.7952C12.1338 12.6829 12.29 12.551 12.4365 12.3997C12.583 12.2483 12.7612 12.0701 12.9712 11.865C13.0737 11.7625 13.125 11.6404 13.125 11.4988C13.125 11.4353 13.0859 11.345 13.0078 11.2278C12.9297 11.1106 12.832 10.9788 12.7148 10.8323C12.5977 10.6858 12.4634 10.5393 12.312 10.3928C12.1606 10.2463 12.0142 10.1121 11.8726 9.98999C11.731 9.86792 11.6016 9.76782 11.4844 9.6897C11.3672 9.61157 11.2744 9.57251 11.2061 9.57251C11.1035 9.57251 11.0059 9.60425 10.9131 9.66772C10.8203 9.7312 10.73 9.80933 10.6421 9.9021C10.5542 9.99487 10.459 10.0974 10.3564 10.2097C10.2539 10.322 10.1416 10.4246 10.0195 10.5173C9.89746 10.6101 9.76318 10.6907 9.6167 10.759C9.47021 10.8274 9.29932 10.8591 9.104 10.8542C8.90869 10.8542 8.72314 10.8176 8.54736 10.7444C8.37158 10.6711 8.21289 10.5637 8.07129 10.4221L4.57764 6.92847C4.44092 6.79175 4.33594 6.6355 4.2627 6.45972C4.18945 6.28394 4.15039 6.09595 4.14551 5.89575C4.14551 5.70532 4.17725 5.53687 4.24072 5.39038C4.3042 5.2439 4.38232 5.10718 4.4751 4.98022C4.56787 4.85327 4.67041 4.74341 4.78271 4.65063C4.89502 4.55786 4.99756 4.46021 5.09033 4.35767C5.18311 4.25513 5.26367 4.16479 5.33203 4.08667C5.40039 4.00854 5.43213 3.91089 5.42725 3.7937C5.42725 3.73022 5.38818 3.63989 5.31006 3.52271C5.23193 3.40552 5.13428 3.27612 5.01709 3.13452C4.8999 2.99292 4.76562 2.84644 4.61426 2.69507C4.46289 2.5437 4.31641 2.40942 4.1748 2.29224C4.0332 2.17505 3.90137 2.07495 3.7793 1.99194C3.65723 1.90894 3.56689 1.86987 3.5083 1.87476C3.36182 1.87476 3.2373 1.92603 3.13477 2.02856C2.93457 2.22876 2.75635 2.40454 2.6001 2.55591C2.44385 2.70728 2.31201 2.86353 2.20459 3.02466C2.09717 3.18579 2.0166 3.3689 1.96289 3.57397C1.90918 3.77905 1.87988 4.02563 1.875 4.31372C1.875 4.78247 1.95068 5.26587 2.10205 5.76392C2.25342 6.26196 2.46338 6.76489 2.73193 7.27271C3.00049 7.78052 3.32275 8.27368 3.69873 8.7522C4.07471 9.23071 4.47754 9.68726 4.90723 10.1218C5.33691 10.5564 5.7959 10.9568 6.28418 11.323C6.77246 11.6892 7.26562 12.0066 7.76367 12.2751C8.26172 12.5437 8.75732 12.7512 9.25049 12.8977C9.74365 13.0442 10.2173 13.1199 10.6714 13.1248Z"/>
</mask>
<path d="M11.2061 8.63501C11.3965 8.63501 11.582 8.67163 11.7627 8.74487C11.9434 8.81812 12.1021 8.9231 12.2388 9.05981C12.3413 9.16235 12.4561 9.26978 12.583 9.38208C12.71 9.49438 12.8442 9.61401 12.9858 9.74097C13.1274 9.86792 13.2593 9.99976 13.3813 10.1365C13.5034 10.2732 13.6182 10.4124 13.7256 10.554C13.833 10.6956 13.9136 10.8469 13.9673 11.0081C14.021 11.1692 14.0527 11.3303 14.0625 11.4915C14.0625 11.6819 14.0259 11.8674 13.9526 12.0481C13.8794 12.2288 13.7744 12.3875 13.6377 12.5242C13.3887 12.7732 13.1641 12.9929 12.9639 13.1833C12.7637 13.3738 12.5562 13.5349 12.3413 13.6667C12.1265 13.7986 11.8848 13.8962 11.6162 13.9597C11.3477 14.0232 11.0327 14.0574 10.6714 14.0623C10.1392 14.0623 9.59229 13.9792 9.03076 13.8132C8.46924 13.6472 7.91016 13.4177 7.35352 13.1248C6.79688 12.8318 6.25244 12.4827 5.72021 12.0774C5.18799 11.6721 4.68506 11.2302 4.21143 10.7517C3.73779 10.2732 3.29834 9.76782 2.89307 9.2356C2.48779 8.70337 2.14355 8.16138 1.86035 7.60962C1.57715 7.05786 1.35254 6.50366 1.18652 5.94702C1.02051 5.39038 0.9375 4.85327 0.9375 4.33569C0.9375 3.9646 0.969238 3.64722 1.03271 3.38354C1.09619 3.11987 1.19385 2.88062 1.32568 2.66577C1.45752 2.45093 1.61865 2.24341 1.80908 2.04321C1.99951 1.84302 2.22168 1.61597 2.47559 1.36206C2.6123 1.22534 2.771 1.12036 2.95166 1.04712C3.13232 0.973877 3.31787 0.937256 3.5083 0.937256C3.75244 0.937256 3.98682 1.00317 4.21143 1.13501C4.43604 1.26685 4.65332 1.42798 4.86328 1.61841C5.07324 1.80884 5.26611 2.00903 5.44189 2.21899C5.61768 2.42896 5.78369 2.60962 5.93994 2.76099C6.07666 2.89771 6.18164 3.0564 6.25488 3.23706C6.32812 3.41772 6.36475 3.60327 6.36475 3.7937C6.36475 3.98413 6.33301 4.15503 6.26953 4.3064C6.20605 4.45776 6.12793 4.59204 6.03516 4.70923C5.94238 4.82642 5.83984 4.93628 5.72754 5.03882C5.61523 5.14136 5.5127 5.23901 5.41992 5.33179C5.32715 5.42456 5.24658 5.51489 5.17822 5.60278C5.10986 5.69067 5.07812 5.78833 5.08301 5.89575C5.08301 5.95435 5.12695 6.04712 5.21484 6.17407C5.30273 6.30103 5.4248 6.45239 5.58105 6.62817C5.7373 6.80396 5.91064 6.99194 6.10107 7.19214C6.2915 7.39233 6.49658 7.59985 6.71631 7.8147C6.93604 8.02954 7.14844 8.23706 7.35352 8.43726C7.55859 8.63745 7.75635 8.82788 7.94678 9.00854C8.13721 9.18921 8.29834 9.34302 8.43018 9.46997C8.56201 9.59692 8.66455 9.69458 8.73779 9.76294C8.84033 9.86548 8.9624 9.91675 9.104 9.91675C9.20654 9.91675 9.30176 9.88501 9.38965 9.82153C9.47754 9.75806 9.56787 9.67993 9.66064 9.58716C9.75342 9.49438 9.84863 9.39185 9.94629 9.27954C10.0439 9.16724 10.1562 9.0647 10.2832 8.97192C10.4102 8.87915 10.5444 8.79858 10.686 8.73022C10.8276 8.66187 11.001 8.63013 11.2061 8.63501ZM10.6714 13.1248C10.9692 13.1248 11.2183 13.0979 11.4185 13.0442C11.6187 12.9905 11.8018 12.9075 11.9678 12.7952C12.1338 12.6829 12.29 12.551 12.4365 12.3997C12.583 12.2483 12.7612 12.0701 12.9712 11.865C13.0737 11.7625 13.125 11.6404 13.125 11.4988C13.125 11.4353 13.0859 11.345 13.0078 11.2278C12.9297 11.1106 12.832 10.9788 12.7148 10.8323C12.5977 10.6858 12.4634 10.5393 12.312 10.3928C12.1606 10.2463 12.0142 10.1121 11.8726 9.98999C11.731 9.86792 11.6016 9.76782 11.4844 9.6897C11.3672 9.61157 11.2744 9.57251 11.2061 9.57251C11.1035 9.57251 11.0059 9.60425 10.9131 9.66772C10.8203 9.7312 10.73 9.80933 10.6421 9.9021C10.5542 9.99487 10.459 10.0974 10.3564 10.2097C10.2539 10.322 10.1416 10.4246 10.0195 10.5173C9.89746 10.6101 9.76318 10.6907 9.6167 10.759C9.47021 10.8274 9.29932 10.8591 9.104 10.8542C8.90869 10.8542 8.72314 10.8176 8.54736 10.7444C8.37158 10.6711 8.21289 10.5637 8.07129 10.4221L4.57764 6.92847C4.44092 6.79175 4.33594 6.6355 4.2627 6.45972C4.18945 6.28394 4.15039 6.09595 4.14551 5.89575C4.14551 5.70532 4.17725 5.53687 4.24072 5.39038C4.3042 5.2439 4.38232 5.10718 4.4751 4.98022C4.56787 4.85327 4.67041 4.74341 4.78271 4.65063C4.89502 4.55786 4.99756 4.46021 5.09033 4.35767C5.18311 4.25513 5.26367 4.16479 5.33203 4.08667C5.40039 4.00854 5.43213 3.91089 5.42725 3.7937C5.42725 3.73022 5.38818 3.63989 5.31006 3.52271C5.23193 3.40552 5.13428 3.27612 5.01709 3.13452C4.8999 2.99292 4.76562 2.84644 4.61426 2.69507C4.46289 2.5437 4.31641 2.40942 4.1748 2.29224C4.0332 2.17505 3.90137 2.07495 3.7793 1.99194C3.65723 1.90894 3.56689 1.86987 3.5083 1.87476C3.36182 1.87476 3.2373 1.92603 3.13477 2.02856C2.93457 2.22876 2.75635 2.40454 2.6001 2.55591C2.44385 2.70728 2.31201 2.86353 2.20459 3.02466C2.09717 3.18579 2.0166 3.3689 1.96289 3.57397C1.90918 3.77905 1.87988 4.02563 1.875 4.31372C1.875 4.78247 1.95068 5.26587 2.10205 5.76392C2.25342 6.26196 2.46338 6.76489 2.73193 7.27271C3.00049 7.78052 3.32275 8.27368 3.69873 8.7522C4.07471 9.23071 4.47754 9.68726 4.90723 10.1218C5.33691 10.5564 5.7959 10.9568 6.28418 11.323C6.77246 11.6892 7.26562 12.0066 7.76367 12.2751C8.26172 12.5437 8.75732 12.7512 9.25049 12.8977C9.74365 13.0442 10.2173 13.1199 10.6714 13.1248Z" fill="url(#paint0_linear_153_137)"/>
<path d="M11.2061 8.63501C11.3965 8.63501 11.582 8.67163 11.7627 8.74487C11.9434 8.81812 12.1021 8.9231 12.2388 9.05981C12.3413 9.16235 12.4561 9.26978 12.583 9.38208C12.71 9.49438 12.8442 9.61401 12.9858 9.74097C13.1274 9.86792 13.2593 9.99976 13.3813 10.1365C13.5034 10.2732 13.6182 10.4124 13.7256 10.554C13.833 10.6956 13.9136 10.8469 13.9673 11.0081C14.021 11.1692 14.0527 11.3303 14.0625 11.4915C14.0625 11.6819 14.0259 11.8674 13.9526 12.0481C13.8794 12.2288 13.7744 12.3875 13.6377 12.5242C13.3887 12.7732 13.1641 12.9929 12.9639 13.1833C12.7637 13.3738 12.5562 13.5349 12.3413 13.6667C12.1265 13.7986 11.8848 13.8962 11.6162 13.9597C11.3477 14.0232 11.0327 14.0574 10.6714 14.0623C10.1392 14.0623 9.59229 13.9792 9.03076 13.8132C8.46924 13.6472 7.91016 13.4177 7.35352 13.1248C6.79688 12.8318 6.25244 12.4827 5.72021 12.0774C5.18799 11.6721 4.68506 11.2302 4.21143 10.7517C3.73779 10.2732 3.29834 9.76782 2.89307 9.2356C2.48779 8.70337 2.14355 8.16138 1.86035 7.60962C1.57715 7.05786 1.35254 6.50366 1.18652 5.94702C1.02051 5.39038 0.9375 4.85327 0.9375 4.33569C0.9375 3.9646 0.969238 3.64722 1.03271 3.38354C1.09619 3.11987 1.19385 2.88062 1.32568 2.66577C1.45752 2.45093 1.61865 2.24341 1.80908 2.04321C1.99951 1.84302 2.22168 1.61597 2.47559 1.36206C2.6123 1.22534 2.771 1.12036 2.95166 1.04712C3.13232 0.973877 3.31787 0.937256 3.5083 0.937256C3.75244 0.937256 3.98682 1.00317 4.21143 1.13501C4.43604 1.26685 4.65332 1.42798 4.86328 1.61841C5.07324 1.80884 5.26611 2.00903 5.44189 2.21899C5.61768 2.42896 5.78369 2.60962 5.93994 2.76099C6.07666 2.89771 6.18164 3.0564 6.25488 3.23706C6.32812 3.41772 6.36475 3.60327 6.36475 3.7937C6.36475 3.98413 6.33301 4.15503 6.26953 4.3064C6.20605 4.45776 6.12793 4.59204 6.03516 4.70923C5.94238 4.82642 5.83984 4.93628 5.72754 5.03882C5.61523 5.14136 5.5127 5.23901 5.41992 5.33179C5.32715 5.42456 5.24658 5.51489 5.17822 5.60278C5.10986 5.69067 5.07812 5.78833 5.08301 5.89575C5.08301 5.95435 5.12695 6.04712 5.21484 6.17407C5.30273 6.30103 5.4248 6.45239 5.58105 6.62817C5.7373 6.80396 5.91064 6.99194 6.10107 7.19214C6.2915 7.39233 6.49658 7.59985 6.71631 7.8147C6.93604 8.02954 7.14844 8.23706 7.35352 8.43726C7.55859 8.63745 7.75635 8.82788 7.94678 9.00854C8.13721 9.18921 8.29834 9.34302 8.43018 9.46997C8.56201 9.59692 8.66455 9.69458 8.73779 9.76294C8.84033 9.86548 8.9624 9.91675 9.104 9.91675C9.20654 9.91675 9.30176 9.88501 9.38965 9.82153C9.47754 9.75806 9.56787 9.67993 9.66064 9.58716C9.75342 9.49438 9.84863 9.39185 9.94629 9.27954C10.0439 9.16724 10.1562 9.0647 10.2832 8.97192C10.4102 8.87915 10.5444 8.79858 10.686 8.73022C10.8276 8.66187 11.001 8.63013 11.2061 8.63501ZM10.6714 13.1248C10.9692 13.1248 11.2183 13.0979 11.4185 13.0442C11.6187 12.9905 11.8018 12.9075 11.9678 12.7952C12.1338 12.6829 12.29 12.551 12.4365 12.3997C12.583 12.2483 12.7612 12.0701 12.9712 11.865C13.0737 11.7625 13.125 11.6404 13.125 11.4988C13.125 11.4353 13.0859 11.345 13.0078 11.2278C12.9297 11.1106 12.832 10.9788 12.7148 10.8323C12.5977 10.6858 12.4634 10.5393 12.312 10.3928C12.1606 10.2463 12.0142 10.1121 11.8726 9.98999C11.731 9.86792 11.6016 9.76782 11.4844 9.6897C11.3672 9.61157 11.2744 9.57251 11.2061 9.57251C11.1035 9.57251 11.0059 9.60425 10.9131 9.66772C10.8203 9.7312 10.73 9.80933 10.6421 9.9021C10.5542 9.99487 10.459 10.0974 10.3564 10.2097C10.2539 10.322 10.1416 10.4246 10.0195 10.5173C9.89746 10.6101 9.76318 10.6907 9.6167 10.759C9.47021 10.8274 9.29932 10.8591 9.104 10.8542C8.90869 10.8542 8.72314 10.8176 8.54736 10.7444C8.37158 10.6711 8.21289 10.5637 8.07129 10.4221L4.57764 6.92847C4.44092 6.79175 4.33594 6.6355 4.2627 6.45972C4.18945 6.28394 4.15039 6.09595 4.14551 5.89575C4.14551 5.70532 4.17725 5.53687 4.24072 5.39038C4.3042 5.2439 4.38232 5.10718 4.4751 4.98022C4.56787 4.85327 4.67041 4.74341 4.78271 4.65063C4.89502 4.55786 4.99756 4.46021 5.09033 4.35767C5.18311 4.25513 5.26367 4.16479 5.33203 4.08667C5.40039 4.00854 5.43213 3.91089 5.42725 3.7937C5.42725 3.73022 5.38818 3.63989 5.31006 3.52271C5.23193 3.40552 5.13428 3.27612 5.01709 3.13452C4.8999 2.99292 4.76562 2.84644 4.61426 2.69507C4.46289 2.5437 4.31641 2.40942 4.1748 2.29224C4.0332 2.17505 3.90137 2.07495 3.7793 1.99194C3.65723 1.90894 3.56689 1.86987 3.5083 1.87476C3.36182 1.87476 3.2373 1.92603 3.13477 2.02856C2.93457 2.22876 2.75635 2.40454 2.6001 2.55591C2.44385 2.70728 2.31201 2.86353 2.20459 3.02466C2.09717 3.18579 2.0166 3.3689 1.96289 3.57397C1.90918 3.77905 1.87988 4.02563 1.875 4.31372C1.875 4.78247 1.95068 5.26587 2.10205 5.76392C2.25342 6.26196 2.46338 6.76489 2.73193 7.27271C3.00049 7.78052 3.32275 8.27368 3.69873 8.7522C4.07471 9.23071 4.47754 9.68726 4.90723 10.1218C5.33691 10.5564 5.7959 10.9568 6.28418 11.323C6.77246 11.6892 7.26562 12.0066 7.76367 12.2751C8.26172 12.5437 8.75732 12.7512 9.25049 12.8977C9.74365 13.0442 10.2173 13.1199 10.6714 13.1248Z" stroke="url(#paint1_linear_153_137)" stroke-width="0.3" mask="url(#path-1-outside-1_153_137)"/>
<defs>
<linearGradient id="paint0_linear_153_137" x1="0.9375" y1="7.60734" x2="14.0625" y2="7.60734" gradientUnits="userSpaceOnUse">
<stop stop-color="#01C5FF"/>
<stop offset="1" stop-color="#01E9F8"/>
</linearGradient>
<linearGradient id="paint1_linear_153_137" x1="0.9375" y1="7.60734" x2="14.0625" y2="7.60734" gradientUnits="userSpaceOnUse">
<stop stop-color="#01C5FF"/>
<stop offset="1" stop-color="#01E9F8"/>
</linearGradient>
</defs>
</svg>
